<?xml version="1.0" encoding="UTF-8" standalone="no"?> <!-- Created with Vectornator for iOS (http://vectornator.io/) --><!DOCTYPE svg PUBLIC "-//W3C//DTD SVG 1.1//EN" "http://www.w3.org/Graphics/SVG/1.1/DTD/svg11.dtd">
<svg height="100%" style="fill-rule:evenodd;clip-rule:evenodd;stroke-linecap:round;stroke-linejoin:round;" xmlns:xlink="http://www.w3.org/1999/xlink" xmlns="http://www.w3.org/2000/svg" xml:space="preserve" width="100%" xmlns:vectornator="http://vectornator.io" version="1.1" viewBox="0 0 1024 1024">
<metadata>
<vectornator:setting key="DisplayWhiteBackground" value="0"/>
<vectornator:setting key="RulersVisible" value="1"/>
<vectornator:setting key="GridSpacing" value="36"/>
<vectornator:setting key="Units" value="Pixels"/>
<vectornator:setting key="DynamicGuides" value="0"/>
<vectornator:setting key="SnapToPoints" value="0"/>
<vectornator:setting key="SnapToGrid" value="0"/>
<vectornator:setting key="SnapToGuides" value="1"/>
<vectornator:setting key="ShowGrid" value="1"/>
<vectornator:setting key="SnapToEdges" value="0"/>
</metadata>
<defs/>
<g id="Layer 1" vectornator:layerName="Layer 1">
<path stroke="#8a8a8a" stroke-width="2.97" d="M248.904+345.158L191.464+479.125L215.158+534.288L257.52+545.751L281.932+499.184L251.776+431.843L248.904+345.158Z" fill="none" stroke-linecap="round" opacity="1" stroke-linejoin="round"/>
<path stroke="#8a8a8a" stroke-width="2.97" d="M250.34+344.441L351.579+312.203L429.841+392.44L421.225+471.961L367.375+521.393L285.522+500.617" fill="none" stroke-linecap="round" opacity="1" stroke-linejoin="round"/>
<path stroke="#8a8a8a" stroke-width="2.97" d="M190.746+477.692L144.794+520.677L103.867+435.425L132.587+328.681L193.618+289.278L248.186+345.874" fill="none" stroke-linecap="round" opacity="1" stroke-linejoin="round"/>
<path stroke="#8a8a8a" stroke-width="2.97" d="M198.644+289.202L296.412+262.771L405.767+282.773L552.781+319.203L504.335+377.915L431.114+418.495" fill="none" stroke-linecap="round" opacity="1" stroke-linejoin="round"/>
<path stroke="#8a8a8a" stroke-width="2.97" d="M504.185+379.406L752.394+365.149L882.786+479.126L817.515+565.195L681.589+603.516L425.62+455.106" fill="none" stroke-linecap="round" opacity="1" stroke-linejoin="round"/>
<path stroke="#8a8a8a" stroke-width="2.97" d="M227.791+283.915L356.677+135.706L519.42+108.358L602.491+130.244L597.016+169.602L575.026+215.587L331.054+270.177" fill="none" stroke-linecap="round" opacity="1" stroke-linejoin="round"/>
<path stroke="#8a8a8a" stroke-width="2.97" d="M575.472+218.644L757.019+236.854L819.072+302.563L828.595+380.322L813.333+419.452" fill="none" stroke-linecap="round" opacity="1" stroke-linejoin="round"/>
<path stroke="#8a8a8a" stroke-width="2.97" d="M144.881+522.574L148.577+598.242L167.291+532.352L197.27+496.957" fill="none" stroke-linecap="round" opacity="1" stroke-linejoin="round"/>
<path stroke="#8a8a8a" stroke-width="2.97" d="M275.412+515.337L299.003+550.834L288.29+604.727L319.036+531.76L282.74+502.518" fill="none" stroke-linecap="round" opacity="1" stroke-linejoin="round"/>
<path stroke="#8a8a8a" stroke-width="2.97" d="M175.212+528.628L182.731+581.338L209.338+564.429L232.415+582.556L257.9+569.3L274.328+586.008L294.662+563.952" fill="none" stroke-linecap="round" opacity="1" stroke-linejoin="round"/>
<path stroke="#8a8a8a" stroke-width="2.97" d="M311.7+559.637L349.043+585.972L386.806+525.757L455.385+541.672L545.426+524.349" fill="none" stroke-linecap="round" opacity="1" stroke-linejoin="round"/>
<path stroke="#8a8a8a" stroke-width="2.97" d="M388.747+528.964L336.137+691.6L211.935+740.886L348.458+704.131L413.773+535.239" fill="none" stroke-linecap="round" opacity="1" stroke-linejoin="round"/>
<path stroke="#8a8a8a" stroke-width="2.97" d="M133.09+497.296L70.645+607.744L73.9416+732.315L89.0973+611.853L141.442+526.747" fill="none" stroke-linecap="round" opacity="1" stroke-linejoin="round"/>
<path stroke="#929292" stroke-width="2.97" d="M524.127+533.508L552.446+671.884L479.012+794.029L572.843+671.671L554.537+531.287" fill="none" stroke-linecap="round" opacity="1" stroke-linejoin="round"/>
<path stroke="#8a8a8a" stroke-width="2.97" d="M265.964+579.145L269.217+644.227L327.401+680.935L277.74+634.54L285.243+575.055" fill="none" stroke-linecap="round" opacity="1" stroke-linejoin="round"/>
<path stroke="#8a8a8a" stroke-width="2.97" d="M797.189+572.192L870.417+699.26L1005.86+725.647L875.283+680.924L824.393+556.849" fill="none" stroke-linecap="round" opacity="1" stroke-linejoin="round"/>
<path stroke="#8a8a8a" stroke-width="2.97" d="M630.05+575.757L647.807+624.223L718.094+660.639L659.618+611.854L659.48+590.757" fill="none" stroke-linecap="round" opacity="1" stroke-linejoin="round"/>
</g>
<g id="Layer 2" vectornator:layerName="Layer 2">
<path stroke="#929292" stroke-width="2.97" d="M43.3531+801.548L46.3313+923.2L100.755+924.448L119.096+891.802L81.9812+859.007L110.395+825.756L79.7462+798.842L43.3531+801.548Z" fill="none" stroke-linecap="round" opacity="1" stroke-linejoin="round"/>
<path stroke="#060000" stroke-width="2.97" d="M-29.9671+936.2" fill="none" stroke-linecap="round" opacity="1" stroke-linejoin="round"/>
<path stroke="#929292" stroke-width="2.97" d="M58.1931+817.624L61.8781+851.873L91.0926+825.418L75.9082+808.097L58.1931+817.624Z" fill="none" stroke-linecap="round" opacity="1" stroke-linejoin="round"/>
<path stroke="#929292" stroke-width="2.97" d="M58.5566+877.111L59.7313+910.008L86.2248+908.306L97.3258+891.693L77.7345+874.228L58.5566+877.111Z" fill="none" stroke-linecap="round" opacity="1" stroke-linejoin="round"/>
<path stroke="#929292" stroke-width="2.97" d="M133.476+857.019L131.391+922.015L160.754+918.517L162.463+858.725L133.476+857.019Z" fill="none" stroke-linecap="round" opacity="1" stroke-linejoin="round"/>
<path stroke="#929292" stroke-width="2.97" d="M133.504+822.387L133.504+839.707L159.131+842.738L156.759+811.128L133.504+822.387Z" fill="none" stroke-linecap="round" opacity="1" stroke-linejoin="round"/>
<path stroke="#929292" stroke-width="2.97" d="M210.74+832.494L188.977+874.755L194.677+907.454L235.923+919.675L268.513+889.281L262.701+850.773L210.74+832.494Z" fill="none" stroke-linecap="round" opacity="1" stroke-linejoin="round"/>
<path stroke="#929292" stroke-width="2.97" d="M218.122+856.867L202.376+876.62L208.757+896.858L230.568+904.817L250.904+884.161L243.522+859.789L218.122+856.867Z" fill="none" stroke-linecap="round" opacity="1" stroke-linejoin="round"/>
<path stroke="#929292" stroke-width="2.97" d="M296.804+860.067L314.309+873.078L374.412+870.903L361.511+854.916L296.804+860.067Z" fill="none" stroke-linecap="round" opacity="1" stroke-linejoin="round"/>
<path stroke="#929292" stroke-width="2.97" d="M402.625+802.809L397.104+910.811L458.626+911.883L469.23+887.222L422.213+880.933L426.952+802.412L402.625+802.809Z" fill="none" stroke-linecap="round" opacity="1" stroke-linejoin="round"/>
<path stroke="#929292" stroke-width="2.97" d="M534.775+866.646L511.382+845.86L478.827+855.937L480.731+887.035L491.327+909.69L538.221+909.34L525.529+892.945L496.639+885.945L534.775+866.646Z" fill="none" stroke-linecap="round" opacity="1" stroke-linejoin="round"/>
<path stroke="#929292" stroke-width="2.97" d="M492.251+864.019L490.727+877.326L516.586+864.038L505.801+855.082L492.251+864.019Z" fill="none" stroke-linecap="round" opacity="1" stroke-linejoin="round"/>
<path stroke="#929292" stroke-width="2.97" d="M596.904+853.597L568.309+848.366L546.346+873.265L553.018+905.586L593.2+905.807L600.478+895.171L603.539+904.181L621.125+902.517L612.149+845.926L597.184+846.446L596.904+853.597Z" fill="none" stroke-linecap="round" opacity="1" stroke-linejoin="round"/>
<path stroke="#929292" stroke-width="2.97" d="M570.882+863.265L555.918+875.946L560.151+894.987L590.244+896.013L596.128+881.963L594.22+866.221L570.882+863.265Z" fill="none" stroke-linecap="round" opacity="1" stroke-linejoin="round"/>
<path stroke="#929292" stroke-width="2.97" d="M635.176+847.754L639.656+899.722L660.02+902.322L654.552+860.265L666.045+847.984L685.373+857.93L682.67+838.55L657.928+831.624L649.128+841.663L641.915+831.885L635.176+847.754Z" fill="none" stroke-linecap="round" opacity="1" stroke-linejoin="round"/>
<path stroke="#929292" stroke-width="2.97" d="M699.715+840.896L696.943+900.282L712.022+901.247L713.841+860.042L727.873+850.932L744.883+863.169L747.722+900.261L759.506+885.94L755.332+846.448L731.416+833.113L711.843+845.139L709.89+832.656L699.715+840.896Z" fill="none" stroke-linecap="round" opacity="1" stroke-linejoin="round"/>
<path stroke="#929292" stroke-width="2.97" d="M774.331+842.575L774.834+897.495L795.547+900.427L794.719+838.944L774.331+842.575Z" fill="none" stroke-linecap="round" opacity="1" stroke-linejoin="round"/>
<path stroke="#929292" stroke-width="2.97" d="M821.185+836.658L817.257+899.731L833.143+904.836L834.845+858.379L852.434+846.638L869.456+856.337L869.355+900.404L885.909+907.899L884.207+851.232L850.732+832.344L832.009+842.043L821.185+836.658Z" fill="none" stroke-linecap="round" opacity="1" stroke-linejoin="round"/>
<path stroke="#929292" stroke-width="2.97" d="M961.25+834.443L925.32+834.443L904.184+868.323L924.15+899.409L967.053+894.417L969.642+920.004L948.93+944.342L927.109+939.974L912.684+920.004L913.794+953.079L951.889+957.448L980.368+946.527L989.431+915.873L989.431+830.282L973.931+844.548L961.25+834.443Z" fill="none" stroke-linecap="round" opacity="1" stroke-linejoin="round"/>
<path stroke="#929292" stroke-width="2.97" d="M933.396+847.3L918.232+867.27L933.396+883.496L961.37+881.668L964.464+855.1L933.396+847.3Z" fill="none" stroke-linecap="round" opacity="1" stroke-linejoin="round"/>
<path stroke="#929292" stroke-width="2.97" d="M773.353+816.009L773.989+835.146L793.281+831.569L793.444+821.749L773.353+816.009Z" fill="none" stroke-linecap="round" opacity="1" stroke-linejoin="round"/>
</g>
</svg>
